<?xml version="1.0" encoding="utf-8"?>
<!-- Generator: Adobe Illustrator 23.0.6, SVG Export Plug-In . SVG Version: 6.00 Build 0)  -->
<svg version="1.1" xmlns="http://www.w3.org/2000/svg" xmlns:xlink="http://www.w3.org/1999/xlink" x="0px" y="0px"
	 viewBox="0 0 622 194" style="enable-background:new 0 0 622 194;" xml:space="preserve">
<style type="text/css">
	.st0{display:none;}
	.st1{display:inline;fill:#231F20;}
	.st2{filter:url(#Adobe_OpacityMaskFilter);}
	.st3{clip-path:url(#SVGID_2_);}
	.st4{clip-path:url(#SVGID_2_);mask:url(#SVGID_3_);}
	.st5{fill:#FFFFFF;}
	.st6{fill:#231F20;}
</style>
<g id="Layer_2" class="st0">
	<rect x="-251" y="-321" class="st1" width="1364" height="931"/>
</g>
<g id="Layer_1">
	<g>
		<defs>
			<rect id="SVGID_1_" x="4" y="13.4" width="741.4" height="165.8"/>
		</defs>
		<clipPath id="SVGID_2_">
			<use xlink:href="#SVGID_1_"  style="overflow:visible;"/>
		</clipPath>
		<defs>
			<filter id="Adobe_OpacityMaskFilter" filterUnits="userSpaceOnUse" x="56.5" y="60.7" width="502.3" height="85.4">
				<feColorMatrix  type="matrix" values="1 0 0 0 0  0 1 0 0 0  0 0 1 0 0  0 0 0 1 0"/>
			</filter>
		</defs>
		<mask maskUnits="userSpaceOnUse" x="56.5" y="60.7" width="502.3" height="85.4" id="SVGID_3_">
			<g class="st2">
				<g>
					<defs>
						<rect id="SVGID_4_" x="9" y="22" width="736.3" height="157.4"/>
					</defs>
					<clipPath id="SVGID_5_" class="st3">
						<use xlink:href="#SVGID_4_"  style="overflow:visible;"/>
					</clipPath>
					<g style="clip-path:url(#SVGID_5_);">
						
							<image style="overflow:visible;" width="3068" height="656" xlink:href="A1E65323.jpg"  transform="matrix(0.24 0 0 0.24 8.976 22.0146)">
						</image>
					</g>
				</g>
			</g>
		</mask>
		<g class="st4">
			<rect x="56.5" y="60.7" class="st5" width="502.3" height="85.4"/>
		</g>
	</g>
	<g>
		<path class="st6" d="M122.5,60.3l-10.9,21.6c-5.1-4.6-11.5-7.3-17.8-7.3c-3.2,0-5.6,1.8-5.6,4.3c0,2.6,1.5,3.4,8.9,5.2
			c5.6,1.5,10.2,3.3,13.2,5.4c5.5,3.7,8.9,10.7,8.9,18.2c0,16.3-15.9,29.6-35.5,29.6c-7.6,0-16.7-2.2-24.6-5.9
			c-1.7-0.9-4.3-2.1-7.6-3.9l11-22c4.9,6,12.7,9.6,20.4,9.6c4.1,0,6.8-1.8,6.8-4.8c0-2.8-2.3-4.5-7.7-5.7c-5.6-1.1-8.7-2.1-11.6-3.7
			c-7.7-3.8-11.7-10.6-11.7-20c0-16.2,14.9-29.2,33.4-29.2c8.3,0,17.1,2,25.3,5.7C118.6,58.3,120.3,59.1,122.5,60.3z"/>
		<path class="st6" d="M188.1,55.7l-2.4,28.9c-5.5-4.4-10.5-6.3-16.2-6.3c-9.8,0-17.9,8.3-17.9,18.1c0,8.3,6.8,14.6,15.7,14.6
			c6.1,0,11-2.2,16-7l-3.5,29.6c-7.9,2.7-12.7,3.7-18.5,3.7c-22.6,0-39-17.1-39-40.4c0-25.9,19.2-45,44.9-45
			C174.1,51.9,181.1,53.1,188.1,55.7z"/>
		<path class="st6" d="M244.6,103.4l17.7,31.8h-32l-7.3-19.6c-1.2-3.4-2.6-7.8-3.2-10.9l-0.9,0.1c0.1,2.7,0.1,3.8,0.1,6
			c0,3.7-0.2,7.7-0.6,10.7l-1.6,13.7h-29.5l10-81.4h32.3c13.3,0,19.5,1.7,25.6,6.6c6,5,9.5,12.6,9.5,20.3c0,7.1-3,13.8-8.2,17.9
			C253,101.6,250.7,102.5,244.6,103.4z M224.3,75.7l-1.8,14.6h2.4c6.8,0,11.1-3.2,11.1-8.1c0-4.5-2.9-6.6-9.4-6.6H224.3z"/>
		<path class="st6" d="M298.1,124.4l-3.9,10.9h-31.7L300,53.9h33.7l15.1,81.4h-30.1l-0.6-10.9H298.1z M304.9,105.8h11.2l-1.2-14.8
			c-0.1-1.3-0.2-3.4-0.2-5.7c0-2.9,0.1-3.8,0.4-6.5h-1c-1.1,4.8-1.8,7.4-3.7,12.2L304.9,105.8z"/>
		<path class="st6" d="M411.2,53.9L408,79.5l-14-0.9l-7,56.6h-29.9l7-56.6l-14,0.9l3-25.6H411.2z"/>
		<path class="st6" d="M471.2,55.7l-2.4,28.9c-5.5-4.4-10.5-6.3-16.2-6.3c-9.8,0-17.9,8.3-17.9,18.1c0,8.3,6.8,14.6,15.7,14.6
			c6.1,0,11-2.2,16-7l-3.5,29.6c-7.9,2.7-12.7,3.7-18.5,3.7c-22.6,0-39-17.1-39-40.4c0-25.9,19.2-45,44.9-45
			C457.2,51.9,464.1,53.1,471.2,55.7z"/>
		<path class="st6" d="M554.4,53.9l-10,81.4h-29.5l3.7-29.6h-17.4l-3.5,29.6H468l10-81.4h29.5l-3.4,27.8h17.3l3.4-27.8H554.4z"/>
	</g>
	<g>
	</g>
	<g>
	</g>
	<g>
	</g>
	<g>
	</g>
	<g>
	</g>
	<g>
	</g>
	<g>
	</g>
	<g>
	</g>
	<g>
	</g>
	<g>
	</g>
	<g>
	</g>
	<g>
	</g>
	<g>
	</g>
	<g>
	</g>
	<g>
	</g>
</g>
</svg>
