<?xml version="1.0" encoding="utf-8"?>
<!-- Generator: Adobe Illustrator 23.0.6, SVG Export Plug-In . SVG Version: 6.00 Build 0)  -->
<svg version="1.1" id="Layer_1" xmlns="http://www.w3.org/2000/svg" xmlns:xlink="http://www.w3.org/1999/xlink" x="0px" y="0px"
	 viewBox="0 0 509.2600098 135.1199951" style="enable-background:new 0 0 509.2600098 135.1199951;" xml:space="preserve">
<style type="text/css">
	.st0{clip-path:url(#SVGID_2_);}
	.st1{clip-path:url(#SVGID_4_);}
	.st2{fill:#FFFFFF;}
	.st3{enable-background:new    ;}
	.st4{fill:#231F20;}
</style>
<title>scratch_logo_draft01a</title>
<g>
	<defs>
		<rect id="SVGID_1_" x="-45.5299988" y="-20.1199951" width="741.3900146" height="165.7999878"/>
	</defs>
	<clipPath id="SVGID_2_">
		<use xlink:href="#SVGID_1_"  style="overflow:visible;"/>
	</clipPath>
	<g class="st0">
		<g>
			<g>
				<defs>
					<rect id="SVGID_3_" x="6.9400024" y="27.0899963" width="502.3200073" height="85.4400024"/>
				</defs>
				<clipPath id="SVGID_4_">
					<use xlink:href="#SVGID_3_"  style="overflow:visible;"/>
				</clipPath>
				<g class="st1">
					<rect x="6.9400001" y="27.1000004" class="st2" width="502.3200073" height="85.4400024"/>
				</g>
			</g>
		</g>
	</g>
</g>
<g class="st3">
	<path class="st4" d="M60.2646484,46.3046875c-3.5371094-2.4399414-10.0029297-6.0996094-16.5908203-6.0996094
		c-1.5859375,0-4.0253906,0.2436523-5.6113281,1.4638672c-1.0986328,0.8540039-1.4638672,1.7080078-1.4638672,2.9277344
		c0,1.7080078,0.2431641,3.2939453,4.7578125,4.2700195L50.75,50.9404297
		c7.1972656,1.5859375,11.4667969,4.5136719,13.9072266,6.9536133c5.1230469,5.0019531,6.2216797,11.2241211,6.2216797,16.1030273
		c0,6.9541016-1.8300781,13.4199219-7.3203125,19.1533203c-4.6357422,4.7578125-13.4189453,10.3701172-28.6679688,10.3701172
		c-12.4433594,0-20.7392578-3.5380859-27.6928711-6.34375l-2.684082-1.0976563l8.9052734-22.9355469l3.171875,2.4394531
		c3.0498047,2.3183594,9.2714844,5.9785156,16.4697266,5.9785156c4.0253906,0,5.7333984-0.9765625,6.34375-1.4638672
		c1.3417969-1.0986328,1.5859375-2.4404297,1.5859375-3.6601563c0-0.7324219-0.1220703-1.9521484-0.9765625-2.8056641
		c-0.9755859-0.9765625-2.5615234-1.3417969-5.6113281-1.9521484l-7.1972656-1.3417969
		c-4.6357422-0.8544922-9.6376953-2.3183594-14.1513672-6.9541016c-4.1484375-4.2695313-5.855957-9.1494141-5.855957-15.0053711
		c0-7.5634766,2.5620117-14.0292969,7.9291992-19.3969727c6.2216797-6.34375,15.3710938-10.4912109,28.3027344-10.4912109
		c6.4658203,0,14.8837891,1.0976563,24.7646484,7.0756836L60.2646484,46.3046875z"/>
</g>
<g class="st3">
	<path class="st4" d="M133.7124023,100.2265625c-7.6855469,2.9277344-16.7128906,3.2939453-20.4951172,3.2939453
		c-10.6132813,0-21.9589844-3.7822266-30.0097656-11.8339844c-7.6865234-7.5634766-11.8339844-18.5429688-11.8339844-30.0107422
		c0-12.5654297,4.7578125-23.3007813,12.1992188-30.8642578c5.734375-5.7338867,15.4931641-12.3212891,30.7431641-12.3212891
		c6.0996094,0,12.9306641,0.9755859,19.3964844,3.1713867l0.8544922,30.9868164
		c-3.4160156-3.4160156-9.7597656-8.0517578-17.2011719-8.0517578c-4.6357422,0-8.90625,1.8300781-11.8339844,5.0019531
		c-2.8056641,3.0498047-4.2695313,7.3193359-4.2695313,11.5893555c0,4.3916016,1.5859375,8.6616211,4.7578125,11.7114258
		c2.4394531,2.3183594,6.2216797,4.6357422,12.0771484,4.6357422c8.2958984,0,14.0292969-5.0019531,16.4697266-7.6855469
		L133.7124023,100.2265625z"/>
</g>
<g class="st3">
	<path class="st4" d="M141.2739258,101.6904297V20.3198242h36.7197266c8.5400391,0,17.4453125,0.9760742,24.8867188,8.4174805
		c4.1484375,4.1479492,7.6855469,10.3696289,7.6855469,20.0073242c0,7.1977539-2.1953125,11.7114258-4.5136719,14.5170898
		c-2.4394531,3.0498047-6.4658203,5.4902344-11.2236328,6.4658203v0.7324219
		c1.5859375,0.8535156,3.171875,2.0732422,4.2705078,3.78125l18.2988281,27.4492188h-34.0361328l-11.7119141-23.7890625
		c-0.3652344-0.8535156-0.7314453-1.2197266-1.0976563-2.5615234l-0.4882813,0.2431641v26.1074219H141.2739258z
		 M170.0639648,56.5522461h3.4160156c1.7080078,0,4.3916016-0.2441406,6.2216797-1.8300781
		c0.9765625-0.8540039,2.0742188-2.4399414,2.0742188-5.0014648c0-1.8300781-0.4882813-3.6601563-1.5859375-4.8798828
		c-0.9765625-1.0981445-2.5625-2.1958008-5.0019531-2.1958008h-5.1240234V56.5522461z"/>
</g>
<g class="st3">
	<path class="st4" d="M249.7265625,91.5644531l-2.1962891,10.1259766h-31.2304688l28.1806641-81.3706055h32.6943359
		l29.0341797,81.3706055h-31.3525391l-2.6835938-10.1259766H249.7265625z M261.6816406,47.5244141h-1.0976563
		c-0.1220703,3.4160156-0.6103516,6.2216797-1.3427734,9.1499023l-4.0253906,15.6157227h11.8339844l-3.7822266-15.6157227
		C262.5351563,53.5024414,262.0478516,50.4526367,261.6816406,47.5244141z"/>
</g>
<g class="st3">
	<path class="st4" d="M313.6552734,101.6904297V46.0605469l-16.5908203,0.7319336V20.3198242H359.28125v26.4726563
		l-16.5917969-0.7319336v55.6298828H313.6552734z"/>
</g>
<g class="st3">
	<path class="st4" d="M416.7421875,100.2265625c-7.6855469,2.9277344-16.7128906,3.2939453-20.4951172,3.2939453
		c-10.6132813,0-21.9589844-3.7822266-30.0097656-11.8339844c-7.6865234-7.5634766-11.8339844-18.5429688-11.8339844-30.0107422
		c0-12.5654297,4.7578125-23.3007813,12.1992188-30.8642578c5.734375-5.7338867,15.4931641-12.3212891,30.7431641-12.3212891
		c6.0996094,0,12.9306641,0.9755859,19.3964844,3.1713867l0.8544922,30.9868164
		c-3.4160156-3.4160156-9.7597656-8.0517578-17.2011719-8.0517578c-4.6357422,0-8.90625,1.8300781-11.8339844,5.0019531
		c-2.8056641,3.0498047-4.2695313,7.3193359-4.2695313,11.5893555c0,4.3916016,1.5859375,8.6616211,4.7578125,11.7114258
		c2.4394531,2.3183594,6.2216797,4.6357422,12.0771484,4.6357422c8.2958984,0,14.0292969-5.0019531,16.4697266-7.6855469
		L416.7421875,100.2265625z"/>
</g>
<g class="st3">
	<path class="st4" d="M421.8740234,101.6904297V20.3198242h28.4248047V47.890625h18.0546875V20.3198242h28.4248047v81.3706055
		h-28.4248047V73.3876953h-18.0546875v28.3027344H421.8740234z"/>
</g>
</svg>
