<?xml version="1.0" encoding="utf-8"?>
<!-- Generator: Adobe Illustrator 23.0.6, SVG Export Plug-In . SVG Version: 6.00 Build 0)  -->
<svg version="1.1" xmlns="http://www.w3.org/2000/svg" xmlns:xlink="http://www.w3.org/1999/xlink" x="0px" y="0px"
	 viewBox="0 0 953 354" style="enable-background:new 0 0 953 354;" xml:space="preserve">
<style type="text/css">
	.st0{display:none;}
	.st1{display:inline;fill:#231F20;}
	.st2{filter:url(#Adobe_OpacityMaskFilter);}
	.st3{clip-path:url(#SVGID_2_);}
	.st4{clip-path:url(#SVGID_2_);mask:url(#SVGID_3_);}
	.st5{fill:#FFFFFF;}
	.st6{fill:#231F20;}
</style>
<g id="Layer_2" class="st0">
	<rect x="-109" y="-233" class="st1" width="1364" height="931"/>
</g>
<g id="Layer_1">
	<g>
		<defs>
			<rect id="SVGID_1_" x="146.0262451" y="101.4412537" width="741.3850098" height="165.8049927"/>
		</defs>
		<clipPath id="SVGID_2_">
			<use xlink:href="#SVGID_1_"  style="overflow:visible;"/>
		</clipPath>
		<defs>
			
				<filter id="Adobe_OpacityMaskFilter" filterUnits="userSpaceOnUse" x="198.4962463" y="148.6542358" width="502.3200378" height="85.4400024">
				<feColorMatrix  type="matrix" values="1 0 0 0 0  0 1 0 0 0  0 0 1 0 0  0 0 0 1 0"/>
			</filter>
		</defs>
		<mask maskUnits="userSpaceOnUse" x="198.4962463" y="148.6542358" width="502.3200378" height="85.4400024" id="SVGID_3_">
			<g class="st2">
				<g>
					<defs>
						<rect id="SVGID_4_" x="150.9759979" y="110.0146332" width="736.3200073" height="157.4400024"/>
					</defs>
					<clipPath id="SVGID_5_" class="st3">
						<use xlink:href="#SVGID_4_"  style="overflow:visible;"/>
					</clipPath>
					<g style="clip-path:url(#SVGID_5_);">
						
							<image style="overflow:visible;" width="3068" height="656" xlink:href="E7D7FED8.jpg"  transform="matrix(0.24 0 0 0.24 150.9759979 110.0146332)">
						</image>
					</g>
				</g>
			</g>
		</mask>
		<g class="st4">
			<rect x="198.4962463" y="148.6542358" class="st5" width="502.3200378" height="85.4400024"/>
		</g>
	</g>
	<g>
		<path class="st6" d="M264.5097656,148.3398438l-10.8579102,21.5927734
			c-5.1235352-4.6357422-11.4672852-7.3193359-17.8110352-7.3193359c-3.171875,0-5.6118164,1.8300781-5.6118164,4.2695313
			c0,2.5615234,1.4643555,3.4160156,8.9057617,5.2460938c5.6118164,1.4638672,10.2475586,3.2939453,13.175293,5.3671875
			c5.4897461,3.6601563,8.9057617,10.7353516,8.9057617,18.1777344c0,16.3466797-15.859375,29.6445313-35.5004883,29.6445313
			c-7.5634766,0-16.7128906-2.1962891-24.6425781-5.8564453c-1.7080078-0.8535156-4.2700195-2.0732422-7.5639648-3.9033203
			l10.9794922-21.9589844c4.8798828,5.9775391,12.6875,9.6376953,20.3730469,9.6376953
			c4.1479492,0,6.8320313-1.8300781,6.8320313-4.7578125c0-2.8056641-2.3178711-4.5136719-7.6860352-5.7333984
			c-5.6113281-1.0986328-8.6611328-2.0742188-11.5893555-3.6601563
			c-7.6855469-3.7822266-11.7114258-10.6132813-11.7114258-20.0068359c0-16.2255859,14.8833008-29.1572266,33.4262695-29.1572266
			c8.2958984,0,17.0795898,1.9521484,25.2529297,5.734375C260.605957,146.265625,262.3134766,147.1201172,264.5097656,148.3398438z"
			/>
		<path class="st6" d="M330.1450195,143.7041016l-2.4399414,28.9121094c-5.4897461-4.3916016-10.4912109-6.34375-16.2250977-6.34375
			c-9.7592773,0-17.9331055,8.2958984-17.9331055,18.0556641c0,8.2958984,6.831543,14.6396484,15.7373047,14.6396484
			c6.0996094,0,10.9794922-2.1962891,15.980957-6.9541016l-3.5375977,29.6445313
			c-7.9296875,2.6835938-12.6875,3.6601563-18.5429688,3.6601563c-22.5688477,0-39.0380859-17.0791016-39.0380859-40.3798828
			c0-25.8632813,19.152832-45.0166016,44.8935547-45.0166016
			C316.1157227,139.921875,323.0693359,141.1425781,330.1450195,143.7041016z"/>
		<path class="st6" d="M386.6298828,191.4033203l17.6889648,31.8408203h-31.9624023l-7.3198242-19.640625
			c-1.2197266-3.4160156-2.5615234-7.8076172-3.171875-10.8574219l-0.8540039,0.1210938
			c0.1220703,2.6845703,0.1220703,3.7822266,0.1220703,5.9785156c0,3.6591797-0.2436523,7.6855469-0.6098633,10.7353516
			l-1.5859375,13.6630859h-29.5224609l10.003418-81.3701172h32.3286133c13.2973633,0,19.519043,1.7080078,25.6186523,6.5878906
			c5.9775391,5.0019531,9.515625,12.5654297,9.515625,20.2509766c0,7.0751953-3.0498047,13.7851563-8.1738281,17.9326172
			C395.0473633,189.5742188,392.7294922,190.5498047,386.6298828,191.4033203z M366.2568359,163.7109375l-1.8300781,14.6396484
			h2.4399414c6.831543,0,11.1015625-3.171875,11.1015625-8.0517578c0-4.5136719-2.9282227-6.5878906-9.3935547-6.5878906
			H366.2568359z"/>
		<path class="st6" d="M440.065918,212.3867188l-3.9038086,10.8574219h-31.71875l37.5742188-81.3701172h33.6704102
			l15.1274414,81.3701172h-30.1328125l-0.6098633-10.8574219H440.065918z M446.8974609,193.84375h11.2236328l-1.2202148-14.7617188
			c-0.1220703-1.3417969-0.2436523-3.4160156-0.2436523-5.7333984c0-2.9277344,0.121582-3.7822266,0.3657227-6.4658203h-0.9760742
			c-1.0976563,4.7578125-1.8295898,7.4414063-3.659668,12.1992188L446.8974609,193.84375z"/>
		<path class="st6" d="M553.1572266,141.8740234l-3.171875,25.6191406l-14.0292969-0.8544922l-6.9536133,56.6054688h-29.8886719
			l6.9541016-56.6054688l-14.0292969,0.8544922l3.0498047-25.6191406H553.1572266z"/>
		<path class="st6" d="M613.1806641,143.7041016l-2.4404297,28.9121094c-5.4892578-4.3916016-10.4912109-6.34375-16.2246094-6.34375
			c-9.7597656,0-17.9331055,8.2958984-17.9331055,18.0556641c0,8.2958984,6.831543,14.6396484,15.7368164,14.6396484
			c6.0996094,0,10.9794922-2.1962891,15.9814453-6.9541016l-3.5380859,29.6445313
			c-7.9296875,2.6835938-12.6875,3.6601563-18.5429688,3.6601563c-22.5683594,0-39.0375977-17.0791016-39.0375977-40.3798828
			c0-25.8632813,19.152832-45.0166016,44.8930664-45.0166016
			C599.1513672,139.921875,606.1044922,141.1425781,613.1806641,143.7041016z"/>
		<path class="st6" d="M696.3818359,141.8740234l-10.0039063,81.3701172h-29.5224609l3.6601563-29.6445313h-17.4453125
			l-3.5380859,29.6445313h-29.5224609l10.0039063-81.3701172h29.5224609l-3.4160156,27.8144531h17.3232422l3.4160156-27.8144531
			H696.3818359z"/>
	</g>
</g>
</svg>
