<svg id="Layer_1" data-name="Layer 1" xmlns="http://www.w3.org/2000/svg" viewBox="0 0 506.87 94.4"><title>scratch_logo_draft03a</title><path d="M126.51,69.34,115.65,90.93a26.92,26.92,0,0,0-17.81-7.32c-3.17,0-5.61,1.83-5.61,4.27s1.46,3.42,8.9,5.25c5.62,1.46,10.25,3.29,13.18,5.37,5.49,3.66,8.91,10.73,8.91,18.17,0,16.35-15.86,29.65-35.5,29.65-7.57,0-16.72-2.2-24.65-5.86-1.71-.85-4.27-2.07-7.56-3.9l11-22a26.88,26.88,0,0,0,20.37,9.64c4.15,0,6.83-1.83,6.83-4.76S91.38,115,86,113.75c-5.61-1.1-8.66-2.08-11.59-3.66-7.69-3.79-11.71-10.62-11.71-20,0-16.23,14.88-29.16,33.42-29.16a60.76,60.76,0,0,1,25.26,5.74C122.61,67.27,124.31,68.12,126.51,69.34Z" transform="translate(-51.51 -51.92)" fill="#fff"/><path d="M192.15,64.7l-2.44,28.92c-5.49-4.4-10.5-6.35-16.23-6.35a18.23,18.23,0,0,0-17.93,18.06c0,8.29,6.83,14.64,15.73,14.64,6.1,0,11-2.2,16-7l-3.54,29.65c-7.93,2.68-12.69,3.66-18.55,3.66-22.56,0-39-17.08-39-40.38,0-25.86,19.15-45,44.89-45A61.3,61.3,0,0,1,192.15,64.7Z" transform="translate(-51.51 -51.92)" fill="#fff"/><path d="M248.63,112.4l17.69,31.84h-32L227,124.6a89.78,89.78,0,0,1-3.18-10.85l-.85.12c.12,2.68.12,3.78.12,6a95.35,95.35,0,0,1-.61,10.73l-1.58,13.66H191.41l10-81.37h32.33c13.29,0,19.52,1.71,25.62,6.59a26.72,26.72,0,0,1,9.51,20.25,23.14,23.14,0,0,1-8.17,17.94C257.05,110.57,254.73,111.55,248.63,112.4ZM228.26,84.71l-1.83,14.64h2.44c6.83,0,11.1-3.17,11.1-8,0-4.51-2.93-6.59-9.4-6.59Z" transform="translate(-51.51 -51.92)" fill="#fff"/><path d="M302.07,133.39l-3.91,10.85H266.44L304,62.87h33.67l15.13,81.37H322.68l-.61-10.85Zm6.83-18.55h11.22l-1.22-14.76c-.12-1.34-.24-3.41-.24-5.73a55.34,55.34,0,0,1,.36-6.47h-1a77.46,77.46,0,0,1-3.66,12.2Z" transform="translate(-51.51 -51.92)" fill="#fff"/><path d="M415.16,62.87,412,88.49l-14-.85-7,56.6H361.11l7-56.6-14,.85,3-25.62Z" transform="translate(-51.51 -51.92)" fill="#fff"/><path d="M475.18,64.7l-2.44,28.92c-5.49-4.4-10.49-6.35-16.22-6.35a18.24,18.24,0,0,0-17.94,18.06c0,8.29,6.83,14.64,15.74,14.64,6.1,0,11-2.2,16-7l-3.54,29.65c-7.93,2.68-12.68,3.66-18.54,3.66-22.57,0-39-17.08-39-40.38,0-25.86,19.15-45,44.9-45A61.28,61.28,0,0,1,475.18,64.7Z" transform="translate(-51.51 -51.92)" fill="#fff"/><path d="M558.38,62.87l-10,81.37H518.86l3.66-29.64H505.07l-3.54,29.64H472l10-81.37h29.53l-3.42,27.82h17.32l3.42-27.82Z" transform="translate(-51.51 -51.92)" fill="#fff"/><path d="M122.51,60.34,111.65,81.93a26.92,26.92,0,0,0-17.81-7.32c-3.17,0-5.61,1.83-5.61,4.27s1.46,3.42,8.9,5.25c5.62,1.46,10.25,3.29,13.18,5.37,5.49,3.66,8.91,10.73,8.91,18.17,0,16.35-15.86,29.65-35.5,29.65-7.57,0-16.72-2.2-24.65-5.86-1.71-.85-4.27-2.07-7.56-3.9l11-22a26.88,26.88,0,0,0,20.37,9.64c4.15,0,6.83-1.83,6.83-4.76S87.38,106,82,104.75c-5.61-1.1-8.66-2.08-11.59-3.66-7.69-3.79-11.71-10.62-11.71-20,0-16.23,14.88-29.16,33.42-29.16a60.76,60.76,0,0,1,25.26,5.74C118.61,58.27,120.31,59.12,122.51,60.34Z" transform="translate(-51.51 -51.92)" fill="#231f20"/><path d="M188.15,55.7l-2.44,28.92c-5.49-4.4-10.5-6.35-16.23-6.35a18.23,18.23,0,0,0-17.93,18.06c0,8.29,6.83,14.64,15.73,14.64,6.1,0,11-2.2,16-7l-3.54,29.65c-7.93,2.68-12.69,3.66-18.55,3.66-22.56,0-39-17.08-39-40.38,0-25.86,19.15-45,44.89-45A61.3,61.3,0,0,1,188.15,55.7Z" transform="translate(-51.51 -51.92)" fill="#231f20"/><path d="M244.63,103.4l17.69,31.84h-32L223,115.6a89.78,89.78,0,0,1-3.18-10.85l-.85.12c.12,2.68.12,3.78.12,6a95.35,95.35,0,0,1-.61,10.73l-1.58,13.66H187.41l10-81.37h32.33c13.29,0,19.52,1.71,25.62,6.59a26.72,26.72,0,0,1,9.51,20.25,23.14,23.14,0,0,1-8.17,17.94C253.05,101.57,250.73,102.55,244.63,103.4ZM224.26,75.71l-1.83,14.64h2.44c6.83,0,11.1-3.17,11.1-8,0-4.51-2.93-6.59-9.4-6.59Z" transform="translate(-51.51 -51.92)" fill="#231f20"/><path d="M298.07,124.39l-3.91,10.85H262.44L300,53.87h33.67l15.13,81.37H318.68l-.61-10.85Zm6.83-18.55h11.22L314.9,91.08c-.12-1.34-.24-3.41-.24-5.73a55.34,55.34,0,0,1,.36-6.47h-1a77.46,77.46,0,0,1-3.66,12.2Z" transform="translate(-51.51 -51.92)" fill="#231f20"/><path d="M411.16,53.87,408,79.49l-14-.85-7,56.6H357.11l7-56.6-14,.85,3-25.62Z" transform="translate(-51.51 -51.92)" fill="#231f20"/><path d="M471.18,55.7l-2.44,28.92c-5.49-4.4-10.49-6.35-16.22-6.35a18.24,18.24,0,0,0-17.94,18.06c0,8.29,6.83,14.64,15.74,14.64,6.1,0,11-2.2,16-7l-3.54,29.65c-7.93,2.68-12.68,3.66-18.54,3.66-22.57,0-39-17.08-39-40.38,0-25.86,19.15-45,44.9-45A61.28,61.28,0,0,1,471.18,55.7Z" transform="translate(-51.51 -51.92)" fill="#231f20"/><path d="M554.38,53.87l-10,81.37H514.86l3.66-29.64H501.07l-3.54,29.64H468l10-81.37h29.53l-3.42,27.82h17.32l3.42-27.82Z" transform="translate(-51.51 -51.92)" fill="#231f20"/></svg>